<svg width="57" height="66" viewBox="0 0 57 66" fill="none" xmlns="http://www.w3.org/2000/svg">
<path d="M55.6054 21.2965C52.2997 6.57966 39.4582 0 28.2061 0C28.2061 0 28.2061 0 28.1743 0C16.9538 0 4.14415 6.57966 0.80664 21.2647C-2.94408 37.6662 7.10023 51.5565 16.191 60.3294C19.5603 63.5716 23.8832 65.1926 28.2061 65.1926C32.5289 65.1926 36.8518 63.5716 40.1893 60.3294C49.2801 51.5565 59.3244 37.6979 55.6054 21.2965ZM36.9472 30.9911H30.59V37.3483C30.59 38.6515 29.5093 39.7322 28.2061 39.7322C26.9029 39.7322 25.8221 38.6515 25.8221 37.3483V30.9911H19.4649C18.1617 30.9911 17.081 29.9104 17.081 28.6072C17.081 27.304 18.1617 26.2233 19.4649 26.2233H25.8221V19.8661C25.8221 18.5629 26.9029 17.4822 28.2061 17.4822C29.5093 17.4822 30.59 18.5629 30.59 19.8661V26.2233H36.9472C38.2504 26.2233 39.3311 27.304 39.3311 28.6072C39.3311 29.9104 38.2504 30.9911 36.9472 30.9911Z" fill="#78BA52"/>
<path d="M36.9472 30.9911H30.59V37.3483C30.59 38.6515 29.5093 39.7322 28.2061 39.7322C26.9029 39.7322 25.8221 38.6515 25.8221 37.3483V30.9911H19.4649C18.1617 30.9911 17.081 29.9104 17.081 28.6072C17.081 27.304 18.1617 26.2233 19.4649 26.2233H25.8221V19.8661C25.8221 18.5629 26.9029 17.4822 28.2061 17.4822C29.5093 17.4822 30.59 18.5629 30.59 19.8661V26.2233H36.9472C38.2504 26.2233 39.3311 27.304 39.3311 28.6072C39.3311 29.9104 38.2504 30.9911 36.9472 30.9911Z" fill="#78BA52"/>
<path d="M14 22.5556L28 14L42 22.5556" stroke="white" stroke-width="2" stroke-linecap="round" stroke-linejoin="round"/>
<path d="M38.8889 28V37.9556C38.8889 38.4711 38.4711 38.8889 37.9556 38.8889H18.0444C17.529 38.8889 17.1111 38.4711 17.1111 37.9556V28" stroke="white" stroke-width="2" stroke-linecap="round" stroke-linejoin="round"/>
<path d="M31.1111 23.0941C29.5556 21.6582 25.4074 21.1795 25.4074 24.0514C25.4074 26.9231 31.1111 25.4873 31.1111 28.359C31.1111 31.2309 26.4444 31.2309 24.8889 29.3163" stroke="white" stroke-width="2" stroke-linecap="round" stroke-linejoin="round"/>
<path d="M28 30.6477V32.6667" stroke="white" stroke-width="2" stroke-linecap="round" stroke-linejoin="round"/>
<path d="M28 21.9537V20.2222" stroke="white" stroke-width="2" stroke-linecap="round" stroke-linejoin="round"/>
</svg>
