<svg width="57" height="66" viewBox="0 0 57 66" fill="none" xmlns="http://www.w3.org/2000/svg">
<path d="M55.6054 21.2965C52.2997 6.57966 39.4582 0 28.2061 0C28.2061 0 28.2061 0 28.1743 0C16.9538 0 4.14415 6.57966 0.80664 21.2647C-2.94408 37.6662 7.10023 51.5565 16.191 60.3294C19.5603 63.5716 23.8832 65.1926 28.2061 65.1926C32.5289 65.1926 36.8518 63.5716 40.1893 60.3294C49.2801 51.5565 59.3244 37.6979 55.6054 21.2965ZM36.2479 36.5219C35.7711 36.9987 35.1672 37.2212 34.5632 37.2212C33.9593 37.2212 33.3554 36.9987 32.8786 36.5219L28.2697 31.9129L23.5336 36.649C23.0568 37.1258 22.4529 37.3483 21.8488 37.3483C21.2449 37.3483 20.641 37.1258 20.1642 36.649C19.2424 35.7272 19.2424 34.2015 20.1642 33.2797L24.9004 28.5436L20.2913 23.9347C19.3695 23.0129 19.3695 21.4872 20.2913 20.5654C21.2131 19.6436 22.7389 19.6436 23.6607 20.5654L28.2697 25.1743L32.7197 20.7243C33.6415 19.8025 35.1672 19.8025 36.089 20.7243C37.0107 21.6461 37.0107 23.1718 36.089 24.0936L31.6389 28.5436L36.2479 33.1526C37.1697 34.0744 37.1697 35.5683 36.2479 36.5219Z" fill="#CD3030" fill-opacity="0.7"/>
<path d="M36.2479 36.5219C35.7711 36.9987 35.1672 37.2212 34.5632 37.2212C33.9593 37.2212 33.3554 36.9987 32.8786 36.5219L28.2697 31.9129L23.5336 36.649C23.0568 37.1258 22.4529 37.3483 21.8488 37.3483C21.2449 37.3483 20.641 37.1258 20.1642 36.649C19.2424 35.7272 19.2424 34.2015 20.1642 33.2797L24.9004 28.5436L20.2913 23.9347C19.3695 23.0129 19.3695 21.4872 20.2913 20.5654C21.2131 19.6436 22.7389 19.6436 23.6607 20.5654L28.2697 25.1743L32.7197 20.7243C33.6415 19.8025 35.1672 19.8025 36.089 20.7243C37.0107 21.6461 37.0107 23.1718 36.089 24.0936L31.6389 28.5436L36.2479 33.1526C37.1697 34.0744 37.1697 35.5683 36.2479 36.5219Z" fill="white" fill-opacity="0.7"/>
</svg>
