<svg width="57" height="66" viewBox="0 0 57 66" fill="none" xmlns="http://www.w3.org/2000/svg">
<path d="M55.6057 21.289C52.2694 6.60913 39.4642 0 28.2159 0C28.2159 0 28.2159 0 28.1842 0C16.9676 0 4.13064 6.57736 0.794297 21.2573C-2.92334 37.653 7.11746 51.5385 16.205 60.2766C19.5731 63.5176 23.8946 65.1381 28.2159 65.1381C32.5373 65.1381 36.8586 63.5176 40.195 60.2766C49.2825 51.5385 59.3233 37.6848 55.6057 21.289ZM28.2159 37.2081C22.6871 37.2081 18.2068 32.7279 18.2068 27.1991C18.2068 21.6703 22.6871 17.1901 28.2159 17.1901C33.7447 17.1901 38.225 21.6703 38.225 27.1991C38.225 32.7279 33.7447 37.2081 28.2159 37.2081Z" fill="#5282BA"/>
<path d="M28.2159 37.2081C22.6871 37.2081 18.2068 32.7279 18.2068 27.1991C18.2068 21.6703 22.6871 17.1901 28.2159 17.1901C33.7447 17.1901 38.225 21.6703 38.225 27.1991C38.225 32.7279 33.7447 37.2081 28.2159 37.2081Z" fill="white"/>
</svg>
